<?xml version="1.0" encoding="UTF-8"?><svg id="Layer_1" xmlns="http://www.w3.org/2000/svg" viewBox="0 0 4004 4000">
<defs>
    <style>
        .cls-1, .cls-2 {
            stroke-width:0px;
            opacity: 0; 
            transition: opacity 0.444s, transform 0.5s, fill 0.333s;
            transform: translateY(2000px); /* Starting from the bottom of the screen. Adjust as needed. */
            fill: #fff; 
        }
    </style>
    
    
</defs>
<path id="Outer_-_top" class="cls-2" d="m2057.94,0c3.19.65,6.37,1.81,9.57,1.88,58.58,1.26,116.86,6.42,175.05,12.92,2.9.32,5.73,1.24,8.87,1.95v255.48c-55.57-7.18-110.64-12.56-165.96-15.06-55.25-2.49-110.45-2.49-165.69.06-55.43,2.56-110.61,7.87-165.43,15.23-2.2-8.32-2.63-244.58-.58-256.37,18.17-1.97,36.6-4.31,55.1-5.9,31.13-2.68,62.29-5.06,93.46-7.23,11.62-.81,23.3-.54,34.94-1.06,4.24-.19,8.44-1.23,12.66-1.89,36,0,72,0,108,0Z"/><path id="Outer_-_bot" class="cls-2" d="m1919.94,4000c-2.48-.69-4.94-1.91-7.43-1.98-43.57-1.27-86.96-4.9-130.24-9.99-9.51-1.12-19.03-2.12-29.07-3.23v-256.71c82.88,11.6,165.65,17.79,248.74,17.85,83.16.06,165.99-5.91,248.22-17.42,2.12,8.13,2.68,242.85.7,256.49-11.78,1.41-23.87,3.22-36.01,4.25-35.11,2.96-70.25,5.62-105.38,8.32-4.64.36-9.34,0-13.97.42-3.21.28-6.36,1.3-9.54,2h-166.01Z"/>
<path id="Inner_-_right" class="cls-2" d="m2505.01,639.13c-3.84-5.05-3.97-12.26-.72-18.5,15.33-29.53,31.22-58.76,47.13-88.51,3.64.49,6.8.91,10.99,1.47,4.04-10.12,8.19-20.5,12.76-31.94,3.65,1.2,7.03,2.14,10.29,3.4,127.36,49.5,246.44,114.25,357.24,194.2,60.87,43.93,118.46,91.8,172.51,143.93,208.72,201.32,353.4,441.22,433.52,719.94,19.14,66.6,33.97,134.21,43.15,202.93,4.75,35.58,8.62,71.3,11.94,107.04,2.24,24.16,3.04,48.47,4.06,72.73.8,18.96.97,37.95,1.33,56.92.04,2.26-.41,4.54-.72,7.67-3.11.29-5.97.79-8.84.79-122.99.04-245.99.46-368.97-.1-97.61-.45-195.21-2.11-292.82-3.22-3.91-.04-7.83,0-12.58,0-.22-4.7-.49-8.27-.54-11.85-2.92-228.53-78.94-429.48-228.36-602.34-53.65-62.07-115.1-115.66-183.75-160.73-7.72-5.07-10.11-10.49-10.1-19.38.24-184.65.16-369.3.27-553.95,0-6.17,1.3-12.33,2.22-20.51Z"/>
<path id="Inner_-_left" class="cls-2" d="m1432.83,501.36c2.66,6.68,4.77,11.9,6.82,17.13,1.92,4.9,3.78,9.83,5.73,14.92,3.29-.5,5.82-.89,9.08-1.38,7.88,14.36,15.71,28.6,23.52,42.85,6.56,11.98,12.91,24.07,19.71,35.91,3.11,5.41,4.24,10.9,4.23,17.08-.14,54.51-.08,109.02-.08,163.52,0,141.64-.07,283.27.18,424.91.01,7.89-2.49,12.35-9.03,16.8-198.75,135.23-328.2,319.11-386.63,552.5-10.76,42.97-18.02,86.65-21.11,130.88-1.9,27.21-2.75,54.48-4.11,81.73-.14,2.9-.5,5.79-.84,9.62-5.37,0-9.98-.03-14.6,0-90.31.58-180.64.08-270.93,2.03-126.93,2.73-253.85.35-380.77,1.38-4.25.03-8.5,0-14.05,0-1.55-168.19,22.72-331.33,72.88-490.48,81.11-257.32,218.68-480.31,411.6-668.73,158.12-154.44,340.86-270.94,548.4-350.67Z"/>
<path id="Outer_-_Left_top" class="cls-2" d="m257.66,2010.62H4.45c-.19-3.83-.49-7.07-.48-10.31.19-37.32-.52-74.68.94-111.96,1.25-31.91,4.39-63.79,7.82-95.57,3.68-34.07,7.94-68.11,13.29-101.94,5.62-35.47,12.45-70.77,19.45-106.01,11.8-59.44,27.54-117.91,45.47-175.75,33-106.41,74.57-209.39,124.98-308.78,58.04-114.43,126.33-222.35,205.04-323.7,100.66-129.62,215.45-245.2,344.38-346.69,127.28-100.19,264.61-184,412.31-250.54,39.12-17.62,79.26-32.99,118.94-49.36,1.81-.74,3.76-1.13,6.84-2.03,23.88,43.7,47.74,87.37,71.98,131.74-4.88,2.2-9.01,4.06-14.5,6.53,7.8,15.69,16.51,30.48,24.58,45.58,8.1,15.18,16.41,30.25,24.91,45.91-346.2,128.97-627.1,342.16-838.49,644.15-211.41,302.02-314.84,638.77-314.26,1008.71Z"/>
<path id="Outer_-_Right_top" class="cls-2" d="m4001.16,2010.6h-252.07c.98-369.52-102.64-706.53-314.21-1008.78-211.44-302.07-492.44-515.21-838.72-644.18,8.71-15.38,17.53-30.15,25.55-45.35,7.89-14.95,14.97-30.34,22.78-46.28-4.08-1.96-8.11-3.9-13-6.26,1.79-3.55,3.27-6.77,5.01-9.85,7.56-13.33,15.53-26.44,22.74-39.95,11.43-21.42,22.32-43.13,33.54-64.66,2.91-5.59,6.22-10.98,9.83-17.31,2.77.76,5.62,1.3,8.28,2.3,125.98,47.55,245.94,107.2,359.81,179.07,147.94,93.38,281.57,204.09,400.56,332.3,109.98,118.51,204.36,248.41,282.99,389.78,58.76,105.65,107.51,215.68,146.22,330.15,23.14,68.43,42.43,137.96,57.88,208.58,11.6,53.04,21.58,106.37,28.47,160.17,5.63,43.89,10.42,88.01,12.73,132.17,2.51,47.87,1.72,95.91,2.34,143.88.01.97-.34,1.95-.76,4.19Z"/>
<path class="cls-2" d="m3566.27,3058.74h133.12c-7.33,22.73-102.58,158.81-178.49,245.95-66.68,76.54-138.07,148.28-215.17,214.31-77.09,66.02-158.76,125.8-244.87,179.52-86.09,53.7-175.78,100.49-269.02,140.49-93.14,39.96-188.71,72.72-286.04,97.6-1.4-.78-1.74-.89-1.97-1.11-.23-.22-.49-.54-.53-.83-.23-1.96-.57-3.94-.57-5.9-.03-84.64-.02-169.28-.02-254.78,3.57-1.29,6.87-2.65,10.27-3.69,227.24-69.67,431.87-180.98,613.86-333.81,109.23-91.73,205.98-195.19,289.44-310.9,7.18-9.96,14.29-14.05,26.77-13.83,46.99.83,93.99.33,140.99.33h12.68c-10.53,16.14-19.85,30.41-30.45,46.66Z"/>
<path class="cls-2" d="m304.85,3058.75h135.82c-10.69-16.36-20.01-30.65-30.1-46.1,4.69-.26,7.57-.55,10.44-.55,49.99-.03,99.98.09,149.97-.15,6.61-.03,10.88,1.79,14.85,7.36,34.84,48.87,72.37,95.64,112.35,140.39,151.84,169.99,329.63,305.98,534.05,406.97,83.14,41.07,169.06,75.25,257.77,102.35,3.77,1.15,7.46,2.57,11.38,3.93v263.68c-123.64-31.63-242.03-75.01-356.49-129.32-114.71-54.42-223.11-119.43-325.5-194.48-102.17-74.88-196.37-158.77-282.62-251.51-86.36-92.85-163.32-192.91-231.92-302.57Z"/>
<path class="cls-2" d="m455.12,2261.6h355.9c4.34,16.19,8.55,31.89,12.97,48.36,6.83-.65,13.43-.87,19.88-1.97,21.65-3.7,43.25-7.7,64.86-11.6,21.94-3.96,43.87-7.98,65.82-11.9,19.66-3.51,39.3-7.11,59-10.31,21.02-3.42,42.06-6.86,63.19-9.45,15.82-1.94,31.81-3.53,47.73-3.59,87.33-.34,174.65-.29,261.98-.02,12.93.04,25.93,1.36,38.75,3.15,25.71,3.59,51.43,7.29,76.93,12.11,26.14,4.94,52.04,11.15,77.97,17.11,3.72.86,7.5,2.9,10.47,5.35,24.43,20.14,48.68,40.49,72.94,60.82,1.44,1.2,2.52,2.83,5.25,5.94-18.02-.59-33.24-7.13-50.87-7.2,9.97,10.66,21.68,17.69,30.7,27.43-.35.65-.71,1.3-1.06,1.95-33.57-5.66-67.06-11.78-100.72-16.84-33.57-5.05-67.22-9.84-100.99-13.27-34.11-3.47-68.38-5.79-102.64-7.43-33.94-1.62-67.95-2.53-101.92-2.33-34.3.21-68.62,1.78-102.89,3.48-33.8,1.67-67.56,4.25-101.34,6.44.03.68.06,1.36.09,2.04,4.94,0,9.9.32,14.81-.05,62.24-4.65,124.58-4.73,186.87-2.81,44.93,1.38,89.85,4.6,134.65,8.48,40.12,3.48,80.16,8.25,120.05,13.79,38.22,5.31,76.26,11.97,114.26,18.73,31.44,5.6,62.67,12.3,94.04,18.29,5.56,1.06,9.68,3.5,13.45,7.69,40.07,44.63,80.3,89.12,120.45,133.68,1.27,1.4,2.13,3.17,4.53,6.8-17.92-3.19-32.52-10.51-49.59-13.83,1.84,2.69,2.84,4.57,4.23,6.1,9.88,10.84,19.86,21.58,29.75,32.41,2.1,2.3,3.95,4.84,5.91,7.27-.41.63-.82,1.27-1.24,1.9-3.76-.88-7.6-1.51-11.26-2.69-34.19-10.94-68.31-22.1-102.54-32.93-39.61-12.53-79.33-24.75-118.97-37.19-34.88-10.95-69.61-22.42-104.63-32.92-40.44-12.13-80.97-24-121.74-34.95-34.36-9.23-68.92-17.92-103.74-25.12-33.21-6.86-66.84-11.81-100.38-16.98-22.7-3.5-45.49-6.77-68.37-8.67-58.5-4.87-117.08-6.94-175.73-1.89-23.56,2.03-47.19,3.23-70.78,4.91-4.93.35-9.82,1.18-16.12,1.96,15.59,46.22,35.72,89.49,56.17,133.62-97.03,64.78-193.63,129.27-291.2,194.41-2.15-3.7-4.29-6.95-5.99-10.41-13.5-27.5-26.72-55.14-40.39-82.56-36.38-72.98-61.95-149.94-84.18-228.12-13.57-47.72-23.94-96.2-32.93-144.97-.66-3.55-.82-7.2-1.36-12.23Z"/>

<path class="cls-2" d="m3095.03,2544.39c21.01-43.26,40.21-86.34,56.21-132.37-4-.64-7.1-1.35-10.23-1.6-20.59-1.63-41.16-3.5-61.78-4.64-27.28-1.51-54.58-3.26-81.88-3.36-26.62-.1-53.3,1.06-79.87,2.93-28.88,2.03-57.73,4.93-86.45,8.56-26.4,3.33-52.75,7.44-78.87,12.47-27.75,5.34-55.26,11.94-82.77,18.42-22.01,5.19-43.92,10.81-65.77,16.63-20.88,5.56-41.67,11.47-62.41,17.52-25.85,7.54-51.63,15.28-77.39,23.11-17.49,5.32-34.91,10.9-52.34,16.41-19.01,6.01-38.01,12.06-57,18.11-24.07,7.67-48.13,15.38-72.2,23.03-17.74,5.63-35.51,11.16-53.25,16.79-19.33,6.12-38.62,12.35-57.96,18.42-4.34,1.36-8.82,2.29-13.86,2.55,4.58-9.54,12.74-15.82,19.22-23.43,6.41-7.52,13.36-14.59,20.07-21.86-.36-.56-.73-1.11-1.09-1.67-15.34,4.65-30.67,9.31-46.01,13.96-.41-.59-.81-1.18-1.22-1.76,1.35-2,2.48-4.19,4.07-5.96,39.26-43.57,78.63-87.04,117.79-130.69,4.64-5.17,9.43-8.62,16.53-9.93,30.74-5.7,61.35-12.1,92.07-17.95,22.23-4.23,44.49-8.39,66.84-11.85,28.28-4.37,56.67-8.12,85.04-11.87,21.12-2.79,42.26-5.67,63.47-7.58,28.86-2.61,57.8-4.34,86.7-6.44,63.89-4.64,127.87-4.78,191.86-3.54,17.65.34,35.27,1.78,52.91,2.52,6.95.29,13.93.05,20.38.05-25.85-7.88-218.61-13.33-303.56-9.27-101.84,4.86-202.56,18.34-304.08,38.72,3.71-8.9,10.67-11.59,15.51-16.27,4.68-4.53,9.95-8.46,14.96-12.65l-.93-2.06c-15.73,2.73-31.47,5.46-47.2,8.19l-.98-1.8c1.96-2,3.78-4.18,5.91-5.97,23.23-19.49,46.66-38.75,69.69-58.47,5.94-5.09,12.88-7.01,19.9-8.61,18.16-4.14,36.4-7.96,54.73-11.28,28.8-5.23,57.72-9.82,86.54-14.94,16.8-2.98,33.66-4.06,50.71-4.03,87.66.16,175.31-.04,262.97.21,11.93.03,23.93,1.38,35.77,3,27.37,3.75,54.71,7.77,81.98,12.2,20.69,3.36,41.25,7.46,61.86,11.31,18.64,3.48,37.23,7.29,55.91,10.51,23.28,4.01,46.64,7.58,69.97,11.31,1.93.31,3.91.34,7.28.62,4.11-16.08,8.19-32.02,12.38-48.41h357.24c-28.2,168.73-82.25,327.41-165.34,477.66-97.26-64.92-194.29-129.69-292.02-194.92Z"/>
<path class="cls-2" d="m2250.84,3549.89c-17.05,2.45-34.38,5.2-51.79,7.42-82.06,10.46-164.52,14.26-247.13,11.49-66.44-2.22-132.65-8.04-198.77-19.65v-354.37c22.81,3.95,45.18,7.82,68.64,11.87,0-4.58.42-8.13-.07-11.56-2.72-19.11-5.15-38.28-8.66-57.25-3.07-16.63-5.05-33.39-9.69-49.85-5.3-18.81-7.54-38.48-11.25-57.75-1.76-9.14-3.7-18.26-5.82-27.32-7.57-32.37-15.19-64.74-22.94-97.07-3.1-12.93-6.71-25.74-9.82-38.66-.84-3.51-.97-7.25-.98-10.88-.07-28-.04-55.99-.04-83.99,0-3.25,0-6.5,0-10.83h-27.65c-13.95-44.94-27.6-88.89-41.5-133.65,5.69-.18,7.93,3.26,10.49,5.99,7.75,8.27,15.39,16.62,23.16,24.87,1.44,1.53,3.25,2.7,6.34,3.14-7.17-22.95-14.35-45.9-21.71-69.46,4.83-.84,6.85,2.08,8.94,4.31,34.18,36.47,68.31,72.98,102.44,109.51,9.39,10.05,13.98,21.58,14.82,35.73,1.89,31.9,5.52,63.7,8.18,95.56,2.61,31.2,4.99,62.42,7.31,93.65,3.5,47.17,6.92,94.35,10.27,141.53,2.84,39.87,5.49,79.76,8.34,119.64.45,6.24,1.53,12.43,2.4,19.28,91.17,10.51,181.67,10.57,273.23.55.77-5.13,1.82-9.94,2.17-14.79,2.34-33.23,4.42-66.48,6.8-99.71,2.73-38.21,5.69-76.41,8.53-114.62,2.29-30.89,4.38-61.8,6.87-92.68,3.06-37.85,6.55-75.66,9.62-113.5,1.16-14.21,2.13-28.46,2.33-42.7.12-8.61,3.02-15.07,8.91-21.28,34.63-36.51,68.93-73.33,103.42-109.97,3.77-4,6.54-9.29,14.34-11.69-6.47,24.68-15.2,47.28-20.22,71.36,1.63-1.38,3.4-2.62,4.85-4.17,7.54-8,14.92-16.16,22.53-24.09,2.58-2.69,5.69-4.86,8.56-7.27.52.4,1.05.8,1.57,1.2-.4,2.15-.57,4.37-1.25,6.44-6.73,20.52-13.83,40.93-20.23,61.55-5.91,19.04-11.34,38.23-16.46,57.5-1.46,5.49-3.7,7.98-9.47,7.6-5.6-.37-11.25-.08-17.97-.08-.21,4.37-.51,7.9-.52,11.44-.05,18.33-.86,36.71.2,54.98,1.24,21.47-4.59,41.47-9.77,61.77-4.52,17.72-8.62,35.54-12.85,53.33-2.08,8.74-4.12,17.48-6,26.26-6.55,30.57-12.99,61.16-19.56,91.72-2.02,9.38-4.83,18.6-6.42,28.04-6.04,35.77-11.75,71.59-17.52,107.4-.47,2.9-.36,5.89-.6,10.18,24.42-1.6,47.46-7.8,70.83-11.21,2.02,7.44,2.61,340.81.57,354.74Z"/>
<path class="cls-2" d="m2504.03,3012.69h743.51c-7.11,21.32-138.61,156.25-212.36,218.07-78.11,65.48-161.63,123.11-250.69,172.68-89.27,49.68-182.37,90.62-279.13,122.13-.88-.55-1.19-.69-1.44-.91-.23-.21-.52-.48-.56-.76-.25-1.63-.62-3.27-.62-4.9.02-167.66.07-335.32.16-502.98,0-.92.61-1.85,1.13-3.33Z"/>
<path class="cls-2" d="m760.22,3012.61h740.98v512.05c-46.72-14.89-91.61-32.33-135.81-51.55-153-66.55-292.27-154.85-417.79-264.71-65.41-57.25-171.08-168.01-187.38-195.79Z"/>
<path class="cls-2" d="m1753.23,451.74c44.13-7.42,87.99-12.43,132.05-15.61,122.27-8.81,243.99-4.36,364.88,14.93,2.14,7.75,2.79,339.08.69,353.89-14.88-2.61-29.77-5.22-45.59-7.99-6.59,11.39-13.18,22.49-19.35,33.82-.88,1.62-.33,4.58.53,6.48,1.78,3.92,4.08,7.64,6.41,11.28,4.01,6.29,3.77,12.25-.02,18.7-12.33,20.95-24.36,42.08-36.53,63.13-26,44.98-52,89.96-78.02,134.93-1.98,3.43-4.08,6.79-7.1,10.08-3.43-48.66-4.63-97.27-5.56-145.92-.93-48.54-3.11-97.05-4.78-146.74-36.75-2.01-72.51-1.71-109.34-.37-4.72,100.54-5.11,200.7-9.79,302.72-2.49-3.03-4.06-4.49-5.09-6.26-40.86-70.63-81.6-141.33-122.6-211.88-3.86-6.65-4.49-12.56.37-18.35,8.5-10.14,8.61-19.76.06-30.04-3.57-4.29-5.69-9.76-8.58-14.63-4.23-7.12-4.46-7.33-12.8-5.85-11.46,2.03-22.88,4.33-34.32,6.47-1.56.29-3.17.32-5.51.55v-353.33Z"/>
<path class="cls-2" d="m21.17,2262.94c7.49-2.36,241.32-3.08,256.09-.72,26.44,172.91,77.36,338.88,154.29,498.39-4.98.28-8.16.61-11.33.61-85.99.03-171.97.02-257.96.02-12.65,0-10.45.15-14.42-9.6-20.09-49.33-37.98-99.45-54-150.25-18.32-58.1-34.37-116.83-46.82-176.43-9.18-43.95-16.46-88.3-24.09-132.56-1.67-9.68-1.24-19.72-1.77-29.47Z"/>
<path class="cls-2" d="m3575,2761.25c77.24-160.15,128.15-325.9,154.65-499.6h256.36c-.86,11.83-.94,23.1-2.6,34.13-7.64,50.68-16.92,101.07-28.4,151.04-23.96,104.3-55.82,206.12-96.23,305.24-3.74,9.17-3.81,9.19-13.79,9.19-85.99.01-171.99,0-257.98,0-3.23,0-6.45,0-12.01,0Z"/>
<path class="cls-2" d="m1800.06,1134.39c11.85,20.59,22.55,39.34,33.39,58,28.1,48.38,56.24,96.72,84.41,145.06,1.5,2.57,3.14,5.12,5.09,7.37,4.6,5.31,6.61,11.39,6.48,18.34-.18,10-.06,19.9,3.46,29.57,1.19,3.27.6,7.26.5,10.91-2.66,99.24-5.35,198.49-8.06,297.73-1.16,42.63-2.45,85.25-3.47,127.89-.13,5.26-1.28,9.64-4.68,13.72-34.08,40.98-68.07,82.04-102.1,123.06-.81.98-1.86,1.77-3.8,3.6-.7-3.95-1.22-6.93-1.91-10.82-3.32,2.96-6.14,5.47-9.13,8.14-2.1-7.73-2.53-819.3-.17-832.56Z"/>
<path class="cls-2" d="m2207.08,1136.62v818.75c-3.62-3.12-6.41-5.53-10.13-8.74-.67,4.07-1.21,7.36-1.92,11.69-2.11-2.22-3.75-3.77-5.18-5.49-31.29-37.69-62.52-75.42-93.85-113.06-4.01-4.82-5.8-9.88-5.97-16.32-2.6-101.6-5.48-203.2-8.27-304.8-1.13-41.3-2.24-82.61-3.28-123.92-.07-2.95-.42-6.49.98-8.76,4.71-7.7,4.6-15.92,3.54-24.21-1.03-8.07,1.21-14.96,5.21-21.82,38.02-65.36,75.9-130.8,113.85-196.2,1.07-1.85,2.47-3.51,5.03-7.12Z"/>
<path class="cls-2" d="m3121.81,2698.06c-9.45,14.74-17.48,27.27-26.12,40.74,10.85,2.47,20.71.96,30.44,1.22,10.33.28,20.66.06,31,.06h32.02c-4.62,7.37-8.05,13.25-11.95,18.81-.94,1.33-3.38,1.96-5.23,2.23-2.61.38-5.32.14-7.99.14-208,0-415.99,0-623.99,0h-13.02c7.86-8.5,16.38-12.76,23.64-18.55,7.55-6.02,15.41-11.66,22.99-17.65,7.58-5.98,15.08-12.09,22.47-18.31,7.39-6.22,14.69-12.55,21.86-19.02,7.17-6.47,14.2-13.11,21.18-19.79,6.98-6.68,13.91-13.43,20.71-20.29,6.8-6.87,13.52-13.82,20.08-20.92,6.55-7.09,12.92-14.36,19.26-21.65,6.34-7.29,12.64-14.61,18.76-22.08,6.12-7.48,12.07-15.09,17.94-22.77,5.86-7.68,11.59-15.46,17.26-23.28,5.62-7.75,11.09-15.61,17.16-24.17,4.83,3.17,8.96,5.84,13.05,8.57,85.08,56.78,170.19,113.51,255.14,170.48,6.72,4.5,13.31,6.58,21.36,6.36,16.65-.46,33.33-.14,50-.14h12Z"/>
<path class="cls-2" d="m817.83,2739.93h93.98c-9.05-14.23-17.16-26.97-25.95-40.8,3.34-.44,5.75-1.02,8.15-1.03,19-.08,38-.25,56.99.07,6.33.11,11.53-1.63,16.72-5.1,85.55-57.25,171.18-114.39,256.79-171.55,3.58-2.39,7.21-4.7,11.93-7.78,65.48,96.7,145.95,178.43,241.47,245.34-.29.72-.58,1.44-.88,2.17h-11.63c-207.29,0-414.59-.07-621.88.22-9.55.01-15.96-2.27-19.74-11.14-1.26-2.97-3.2-5.64-5.95-10.4Z"/>
<path class="cls-2" d="m1649.05,2298.89c11.65,2.03,23.29,4.07,36.31,6.34-4.35-9.27-12.88-13.69-17.58-22.73,2.88,0,4.68-.27,6.38.04,31.41,5.81,62.81,11.67,94.2,17.57,29.1,5.47,58.19,11.04,87.3,16.51,24.53,4.61,49.07,9.13,73.6,13.72,2.29.43,4.52,1.19,6.81,1.59,3.45.61,4.96,2.62,5.56,6.03,4.72,26.87,9.49,53.73,14.4,80.57,3.83,20.95,7.95,41.85,11.8,62.8,4.03,21.93,7.8,43.9,11.83,65.82,3.91,21.27,7.83,42.55,12.17,63.73,1.06,5.16.94,8.58-5.72,9.42,1.95,11.8,3.82,23.15,5.72,34.61-8.44,4.08-14.06,1.13-19.66-4.92-51.42-55.48-103.01-110.81-154.58-166.14-54.53-58.5-109.12-116.96-163.65-175.46-2.18-2.34-4.07-4.94-6.1-7.41.41-.69.82-1.39,1.23-2.08Z"/>
<path class="cls-2" d="m2014.99,2654.23c1.93-10.62,3.88-21.36,5.96-32.79-6.99-2.4-6.47-6.87-5.15-13.12,4.66-22.13,8.3-44.48,12.37-66.73,3.77-20.62,7.62-41.22,11.39-61.84,4.19-22.91,8.27-45.85,12.48-68.75,4.75-25.81,9.61-51.6,14.62-78.49,90.41-16.88,180.54-33.71,272.38-50.86-3.84,10.17-12.98,14.5-17.91,23.72,13.17-2.22,25.17-4.24,37.17-6.26.31.55.63,1.1.94,1.65-1.95,2.5-3.72,5.17-5.87,7.48-106.12,113.81-212.28,227.6-318.44,341.37-7.84,8.4-10.51,8.99-19.94,4.61Z"/>
<path class="cls-2" d="m2653.3,109.79c-30.08,79.02-59.97,157.54-90.01,236.45-3.94-1.12-6.79-1.87-9.61-2.73-25.76-7.89-51.44-16.05-77.32-23.52-6.42-1.86-9.02-4.95-10.17-11.36-14.94-83.1-30.14-166.15-45.24-249.22-.82-4.52-1.43-9.07-2.14-13.63,19.09-1.68,203.86,48.69,234.5,64.02Z"/>
<path class="cls-2" d="m1354.11,108.62c76.1-26.22,152.49-47.36,230.99-63.97,0,3.51.39,6.12-.06,8.58-15.27,84.37-30.62,168.73-45.96,253.09-.42,2.29-1.1,4.54-1.35,6.84-.37,3.45-2.24,5.27-5.47,6.25-28.64,8.62-57.26,17.3-85.89,25.94-.28.08-.63-.09-2.28-.37-29.65-77.89-59.55-156.41-89.98-236.35Z"/>
<path class="cls-2" d="m2112.18,2104.75c.87,40.85-24.22,84.26-67.3,102.46-6.73,2.84-13.54,2.19-20.24,3.56-13.15,2.69-26.26,2.14-39.65,1.25-29.39-1.97-51.64-16.22-69.14-38.38-45.43-57.54-23.21-143.05,44.17-170.17,8.38-3.37,18.02-3.66,27.1-5.18,12.61-2.11,25.07.66,37.59,1.07,40.49,1.33,80.62,46.01,86.44,88.45.77,5.59.7,11.29,1.02,16.94Zm-132.13-80.28c1.45,6.84,2.72,12.86,4.01,18.96-28.06,11.69-45.56,31.17-45.49,61.52.07,30.59,17.32,50.66,45.65,61.9-1.46,6.43-2.76,12.18-4.23,18.72,14.94,4.71,29.37,4.46,44.43.09-1.55-6.8-2.91-12.81-4.24-18.68,56.58-19.85,64.38-99.15.07-124.26,1.34-5.87,2.71-11.83,4.21-18.37-15.46-4.09-29.66-4.36-44.4.12Zm104.53,38.16c-1.04-2.26-1.56-3.83-2.41-5.19-11.07-17.64-26.01-30.75-45.42-38.58-.92-.37-1.96-1.11-2.77-.92-1.39.33-3.45,1.01-3.74,1.98-.31,1.04.93,2.74,1.84,3.86.55.67,1.79.77,2.7,1.16,17.61,7.51,31.54,19.27,41.39,35.77.83,1.38,1.9,3.26,3.17,3.56,1.4.32,3.16-.92,5.23-1.63Zm-51.63,130.44c1.66-.72,2.86-1.27,4.08-1.76,12.18-4.93,23.03-12,31.94-21.58,5.16-5.55,9.35-12.03,13.64-18.32.79-1.16.65-4.2-.28-5.06-2.33-2.17-4.13-.21-5.48,1.9-.54.84-1.04,1.7-1.54,2.56-8.98,15.5-22.09,26.28-38.28,33.56-1.81.82-3.89,1.31-5.36,2.54-.98.82-1.52,2.71-1.42,4.05.06.78,1.78,1.43,2.7,2.11Zm-60.31-176.07c-4.95,2.14-10.13,3.98-14.92,6.54-14.97,7.99-26.66,19.52-35.55,33.94-2.27,3.68-3.05,6.78,2.61,7.49,4.46-6.05,8.42-12.2,13.16-17.68,8.58-9.94,19.24-17.19,31.36-22.27,2.98-1.25,6.75-2.1,3.33-8.01Zm-48.08,128.18c-5.37,1.16-4.36,4.15-2.38,7.37,9.42,15.37,21.98,27.4,38.17,35.47,4.04,2.01,8.28,3.61,12.35,5.36,3.43-5.44.07-6.54-3.14-7.9-11.47-4.84-21.83-11.43-30.06-20.82-5.21-5.95-9.68-12.56-14.93-19.47Z"/>
<path class="cls-2" d="m2083.01,1996.32c-12.92.43-25.34,1.83-38.12-3.27-28.29-11.28-57.22-10.63-85.84-.21-13.05,4.75-22.3,5.74-37.89,3.5,34.8-34.65,115.4-40.97,161.85-.02Z"/>
<path class="cls-2" d="m1920.27,2213.81c13.42.92,25.5-1.32,37.96,3.32,30.07,11.19,60.45,10.51,90.6-.79,3.93-1.47,8.31-2.15,12.53-2.38,6.94-.38,13.92-.1,21.12-.1-5.35,10.38-36.1,24.2-60.47,27.54-36.59,5.01-82.48-7.03-101.73-27.57Z"/>
<path class="cls-2" d="m2121.17,2038.74c24.14,33.57,24.21,98.8.13,132.85-4.28-2.86-8.58-5.73-13.06-8.72,19.15-38.6,18.58-76.75-.1-115.48,4.48-2.98,8.77-5.82,13.02-8.65Z"/>
<path class="cls-2" d="m1896.1,2162.92c-4.85,3.25-8.93,5.99-12.99,8.72-24.2-34.16-24.69-97.11-.14-133,4.28,2.84,8.57,5.68,13.2,8.74-18.72,38.51-19.6,76.57-.07,115.54Z"/>
<path class="cls-2" d="m1752.37,2894.28c.41-1.4.82-2.79,1.23-4.19.56.17,1.62.43,1.61.49-.25,1.42-.63,2.83-.98,4.23-.62-.18-1.24-.36-1.87-.54Z"/>
<path class="cls-1" d="m1980.05,2024.46c14.74-4.48,28.94-4.21,44.4-.12-1.5,6.54-2.86,12.5-4.21,18.37,64.31,25.11,56.52,104.41-.07,124.26,1.33,5.87,2.7,11.87,4.24,18.68-15.06,4.37-29.49,4.62-44.43-.09,1.48-6.53,2.78-12.28,4.23-18.72-28.33-11.24-45.58-31.3-45.65-61.9-.07-30.36,17.43-49.83,45.49-61.52-1.29-6.1-2.57-12.13-4.01-18.96Z"/>
<path class="cls-1" d="m2084.59,2062.63c-2.07.72-3.83,1.96-5.23,1.63-1.27-.29-2.34-2.18-3.17-3.56-9.86-16.5-23.78-28.26-41.39-35.77-.91-.39-2.15-.49-2.7-1.16-.92-1.12-2.15-2.82-1.84-3.86.29-.97,2.35-1.66,3.74-1.98.81-.19,1.85.55,2.77.92,19.41,7.83,34.35,20.94,45.42,38.58.85,1.36,1.37,2.92,2.41,5.19Z"/>
<path class="cls-1" d="m2032.95,2193.07c-.92-.67-2.65-1.33-2.7-2.11-.1-1.35.44-3.23,1.42-4.05,1.47-1.23,3.54-1.73,5.36-2.54,16.18-7.28,29.3-18.06,38.28-33.56.5-.86,1.01-1.72,1.54-2.56,1.35-2.11,3.15-4.06,5.48-1.9.93.86,1.07,3.9.28,5.06-4.28,6.29-8.48,12.77-13.64,18.32-8.91,9.58-19.76,16.65-31.94,21.58-1.22.49-2.41,1.04-4.08,1.76Z"/>
<path class="cls-1" d="m1972.64,2017c3.42,5.91-.36,6.76-3.33,8.01-12.12,5.08-22.78,12.33-31.36,22.27-4.74,5.49-8.7,11.64-13.16,17.68-5.66-.7-4.88-3.81-2.61-7.49,8.89-14.42,20.58-25.95,35.55-33.94,4.79-2.56,9.97-4.39,14.92-6.54Z"/>
<path class="cls-1" d="m1924.57,2145.18c5.25,6.91,9.72,13.52,14.93,19.47,8.23,9.39,18.59,15.98,30.06,20.82,3.21,1.36,6.57,2.46,3.14,7.9-4.07-1.75-8.31-3.35-12.35-5.36-16.19-8.06-28.75-20.09-38.17-35.47-1.97-3.22-2.98-6.21,2.38-7.37Z"/>

    

<script type="text/javascript">
<![CDATA[
    document.addEventListener("DOMContentLoaded", function() { 
    let paths = document.querySelectorAll("path");
        for(let i = 0; i < paths.length; i++){
            let time = i * 40;
            setTimeout(function(){
                let path = paths[i];
                
                // Calculate random horizontal offset
                let randomOffset = (Math.random() - 0.5) * 100;  // Adjust multiplier for a wider range

                path.style.opacity = 1;
                
                // First move to slightly beyond their final position
                path.style.transform = `translate(${randomOffset}px, 20px)`; // Adjust the Y offset as per requirement

                // After a short delay, snap back to their final position
                setTimeout(function(){
                    path.style.transform = `translate(0px, 0px)`;
                    path.style.fill = "#8B0000"; 
                    path.style.fill = "#000000"; 
                }, 250);  // 250ms delay, adjust as needed

            }, time);
        }
    });
]]>
</script>
</svg>